# xmcd
#
# Track frame offsets: 
#        150
#        18730
#        34621
#        53757
#        74886
#        95894
#        119454
#        135458
#        159049
#        173229
#
# Disc length: 2609 seconds
#
# Revision: 2
# Processed by: cddbd v1.5.2PL0 Copyright (c) Steve Scherf et al.
# Submitted via: ExactAudioCopy v0.99pb5
#
DISCID=890a2f0a
DTITLE=Asa - Asa
DYEAR=2007
DGENRE=Blues
TTITLE0=Jailer
TTITLE1=360
TTITLE2=Bibanke
TTITLE3=Subway
TTITLE4=Fire On The Mountain
TTITLE5=Eye Adaba
TTITLE6=No One Knows
TTITLE7=Awe
TTITLE8=Peace
TTITLE9=So Beautiful
EXTD=YEAR: 2007
EXTT0=
EXTT1=
EXTT2=
EXTT3=
EXTT4=
EXTT5=
EXTT6=
EXTT7=
EXTT8=
EXTT9=
PLAYORDER=
